<svg width="39" height="39" viewBox="0 0 39 39" fill="none" xmlns="http://www.w3.org/2000/svg">
<path d="M29.0644 0.000244141H10.9456L0.996582 4.85368L3.88577 32.5381L18.1097 38.0071V16.5551H13.031L12.6509 12.9394H27.3558L26.9757 16.5551H21.897V38.0071L36.0873 32.5617L39 4.84695L29.0644 0.000244141ZM32.5523 29.8474L25.6976 32.4776V20.3558H30.3997L30.8 16.5551L31.18 12.9394L31.5803 9.1387H8.42977L8.83002 12.9394L9.21009 16.5551L9.61034 20.3558H14.3091V32.4675L7.42411 29.8238L5.03607 7.11054L11.8201 3.80093H28.1866L34.9437 7.09709L32.5523 29.8474Z" fill="url(#paint0_linear_920_3502)"/>
<defs>
<linearGradient id="paint0_linear_920_3502" x1="19.3372" y1="0.000244141" x2="19.3372" y2="36.6814" gradientUnits="userSpaceOnUse">
<stop stop-color="#316EF6"/>
<stop offset="0.611597" stop-color="#4CA0F8"/>
<stop offset="1" stop-color="#5FC3D5"/>
</linearGradient>
</defs>
</svg>
