<svg width="128" height="36" viewBox="0 0 128 36" fill="none" xmlns="http://www.w3.org/2000/svg">
<path d="M48.8771 26.1217C48.7676 26.5411 48.6549 26.9636 48.5297 27.383C48.4076 27.8024 48.2825 28.2092 48.1541 28.6005C48.0258 28.9917 47.9069 29.3297 47.7911 29.6208C47.6596 29.2609 47.5313 28.8822 47.403 28.4784C47.2747 28.0778 47.1557 27.6709 47.0399 27.2609C46.9241 26.8509 46.8177 26.4503 46.7176 26.0559C46.6174 25.6616 46.5329 25.2923 46.464 24.948H45.5752C45.4969 25.2923 45.4062 25.6616 45.3029 26.0559C45.1996 26.4503 45.0901 26.8509 44.9743 27.2609C44.8585 27.6709 44.7364 28.0747 44.6112 28.4784C44.4829 28.879 44.3546 29.2609 44.2231 29.6208C44.1073 29.3297 43.9852 28.9886 43.8538 28.6005C43.7223 28.2092 43.5971 27.8055 43.4782 27.383C43.3593 26.9636 43.2466 26.5411 43.1371 26.1217C43.0306 25.7023 42.9368 25.3111 42.8585 24.9511H41.7036C42.0041 26.1217 42.3233 27.2108 42.6613 28.2218C42.9993 29.2327 43.3468 30.1309 43.7004 30.9165H44.6362C44.8522 30.3657 45.0775 29.7366 45.3185 29.0293C45.5564 28.3219 45.7755 27.5864 45.9758 26.8196C46.1761 27.5833 46.3983 28.3219 46.6393 29.0293C46.8803 29.7366 47.1119 30.3657 47.3279 30.9165H48.2637C48.6173 30.1278 48.9647 29.2296 49.3028 28.2218C49.6408 27.2108 49.96 26.1217 50.2605 24.9511H49.1525C49.0774 25.3111 48.9835 25.7023 48.8771 26.1217Z" fill="#FF915A"/>
<path d="M57.8161 26.1217C57.7097 26.5411 57.5939 26.9636 57.4687 27.383C57.3466 27.8024 57.2214 28.2092 57.0931 28.6005C56.9648 28.9917 56.8458 29.3297 56.73 29.6208C56.5986 29.2609 56.4703 28.8822 56.3419 28.4784C56.2136 28.0778 56.0947 27.6709 55.9789 27.2609C55.8631 26.8509 55.7567 26.4503 55.6565 26.0559C55.5564 25.6616 55.4719 25.2923 55.403 24.948H54.5141C54.4359 25.2923 54.3451 25.6616 54.2418 26.0559C54.1386 26.4503 54.029 26.8509 53.9132 27.2609C53.7974 27.6709 53.6754 28.0747 53.5502 28.4784C53.4218 28.879 53.2935 29.2609 53.1621 29.6208C53.0463 29.3297 52.9242 28.9886 52.7927 28.6005C52.6613 28.2092 52.5361 27.8055 52.4172 27.383C52.2982 26.9636 52.1856 26.5411 52.076 26.1217C51.9665 25.7023 51.8757 25.3111 51.7975 24.9511H50.6426C50.943 26.1217 51.2623 27.2108 51.6003 28.2218C51.9383 29.2327 52.2857 30.1309 52.6394 30.9165H53.5752C53.7912 30.3657 54.0196 29.7366 54.2575 29.0293C54.4954 28.3219 54.7145 27.5864 54.9148 26.8196C55.1151 27.5833 55.3373 28.3219 55.5783 29.0293C55.8193 29.7366 56.0509 30.3657 56.2668 30.9165H57.2026C57.5563 30.1278 57.9037 29.2296 58.2417 28.2218C58.5798 27.2108 58.899 26.1217 59.1995 24.9511H58.0915C58.0164 25.3111 57.9256 25.7023 57.8161 26.1217Z" fill="#FF915A"/>
<path d="M66.7568 26.1217C66.6503 26.5411 66.5345 26.9636 66.4093 27.383C66.2873 27.8024 66.1621 28.2092 66.0338 28.6005C65.9054 28.9917 65.7865 29.3297 65.6707 29.6208C65.5393 29.2609 65.4109 28.8822 65.2826 28.4784C65.1543 28.0778 65.0354 27.6709 64.9196 27.2609C64.8038 26.8509 64.6973 26.4503 64.5972 26.0559C64.497 25.6616 64.4125 25.2923 64.3437 24.948H63.4548C63.3766 25.2923 63.2858 25.6616 63.1825 26.0559C63.0792 26.4503 62.9697 26.8509 62.8539 27.2609C62.7381 27.6709 62.616 28.0747 62.4908 28.4784C62.3625 28.879 62.2342 29.2609 62.1027 29.6208C61.9869 29.3297 61.8649 28.9886 61.7334 28.6005C61.602 28.2092 61.4768 27.8055 61.3578 27.383C61.2389 26.9636 61.1262 26.5411 61.0167 26.1217C60.9103 25.7023 60.8164 25.3111 60.7381 24.9511H59.5833C59.8837 26.1217 60.203 27.2108 60.541 28.2218C60.879 29.2327 61.2264 30.1309 61.5801 30.9165H62.5159C62.7318 30.3657 62.9572 29.7366 63.1982 29.0293C63.436 28.3219 63.6551 27.5864 63.8554 26.8196C64.0557 27.5833 64.2779 28.3219 64.5189 29.0293C64.7599 29.7366 64.9915 30.3657 65.2075 30.9165H66.1433C66.497 30.1278 66.8444 29.2296 67.1824 28.2218C67.5204 27.2108 67.8397 26.1217 68.1401 24.9511H67.0322C66.9571 25.3111 66.8663 25.7023 66.7568 26.1217Z" fill="#FF915A"/>
<path d="M69.1705 29.5298C68.9327 29.5298 68.7417 29.6049 68.604 29.7583C68.4663 29.9116 68.3975 30.09 68.3975 30.2966C68.3975 30.5032 68.4663 30.6816 68.604 30.8349C68.7417 30.9883 68.9327 31.0634 69.1705 31.0634C69.4084 31.0634 69.5993 30.9883 69.737 30.8349C69.8747 30.6816 69.9436 30.5032 69.9436 30.2966C69.9436 30.09 69.8747 29.9116 69.737 29.7583C69.5993 29.6049 69.4115 29.5298 69.1705 29.5298Z" fill="#FF915A"/>
<path d="M80.7231 25.6615C80.4727 25.3861 80.1754 25.1733 79.828 25.0262C79.4806 24.8759 79.105 24.804 78.695 24.804C78.2881 24.804 77.9094 24.8791 77.562 25.0262C77.2146 25.1764 76.9173 25.3861 76.6669 25.6615C76.4165 25.9369 76.2225 26.2687 76.0847 26.6537C75.947 27.0386 75.8782 27.4674 75.8782 27.9338C75.8782 28.4095 75.947 28.8351 76.0847 29.217C76.2225 29.5988 76.4165 29.9274 76.6669 30.2029C76.9173 30.4783 77.2146 30.6911 77.562 30.8382C77.9094 30.9884 78.285 31.0604 78.695 31.0604C79.1019 31.0604 79.4806 30.9853 79.828 30.8382C80.1754 30.688 80.4727 30.4783 80.7231 30.2029C80.9735 29.9274 81.1675 29.5988 81.3052 29.217C81.443 28.8351 81.5118 28.4064 81.5118 27.9338C81.5118 27.4674 81.443 27.0418 81.3052 26.6537C81.1675 26.2687 80.9735 25.9369 80.7231 25.6615ZM79.9375 29.5331C79.6339 29.9274 79.2208 30.1246 78.695 30.1246C78.1723 30.1246 77.7561 29.9274 77.4525 29.5331C77.1489 29.1387 76.9955 28.6067 76.9955 27.9338C76.9955 27.2608 77.1489 26.7288 77.4525 26.3344C77.7561 25.9401 78.1692 25.7429 78.695 25.7429C79.2177 25.7429 79.6339 25.9401 79.9375 26.3344C80.2411 26.7288 80.3945 27.2608 80.3945 27.9338C80.3945 28.6067 80.2442 29.1419 79.9375 29.5331Z" fill="#FF915A"/>
<path d="M87.1358 25.5864C86.948 25.3454 86.6945 25.1576 86.3783 25.0231C86.0622 24.8885 85.6648 24.8228 85.189 24.8228C84.657 24.8228 84.1875 24.8572 83.7806 24.926C83.3737 24.9949 83.0451 25.0606 82.7979 25.1201V30.9165H83.8714V25.8806C83.9089 25.8744 83.9747 25.8618 84.0623 25.8462C84.1499 25.8306 84.2501 25.818 84.3628 25.8055C84.4754 25.793 84.5912 25.7836 84.7164 25.7773C84.8385 25.7711 84.9574 25.7648 85.0732 25.7648C85.358 25.7648 85.5959 25.8024 85.7899 25.8744C85.9809 25.9464 86.1374 26.0622 86.2532 26.2249C86.369 26.3845 86.4503 26.5974 86.5004 26.8571C86.5505 27.1169 86.5755 27.4299 86.5755 27.7992V30.9196H87.649V27.5676C87.649 27.1638 87.6115 26.7914 87.5332 26.4534C87.4581 26.1185 87.3235 25.8274 87.1358 25.5864Z" fill="#FF915A"/>
<path d="M91.7745 24.8262C91.3207 24.8262 90.9107 24.9013 90.5507 25.0484C90.1877 25.1986 89.881 25.4052 89.6337 25.6681C89.3833 25.931 89.1924 26.2471 89.0609 26.6102C88.9295 26.9732 88.8638 27.3738 88.8638 27.8089C88.8638 28.3065 88.9326 28.7353 89.0703 29.0952C89.208 29.4551 89.399 29.7556 89.6368 29.9966C89.8747 30.2376 90.1532 30.416 90.4756 30.5287C90.7949 30.6445 91.136 30.7008 91.4991 30.7008C91.8527 30.7008 92.1626 30.6539 92.4286 30.5568C92.6946 30.4598 92.873 30.3816 92.9669 30.3221V30.5725C92.9669 31.1233 92.8261 31.5239 92.5444 31.7775C92.2627 32.031 91.8027 32.1562 91.1642 32.1562C90.8262 32.1562 90.5007 32.1249 90.1877 32.0591C89.8747 31.9934 89.6118 31.9183 89.3958 31.8369L89.1987 32.7633C89.4459 32.8478 89.737 32.9198 90.0719 32.9824C90.4068 33.045 90.7636 33.0732 91.1391 33.0732C92.1094 33.0732 92.8324 32.8666 93.3112 32.4535C93.7901 32.0404 94.0279 31.3737 94.0279 30.4567V25.136C93.7744 25.0734 93.4615 25.0077 93.0859 24.9357C92.7103 24.8606 92.2753 24.8262 91.7745 24.8262ZM92.9513 29.38C92.8136 29.4864 92.6227 29.5803 92.3848 29.6617C92.1469 29.7431 91.884 29.7806 91.5992 29.7806C91.3927 29.7806 91.1892 29.7431 90.992 29.6648C90.7949 29.5897 90.6227 29.4708 90.4725 29.308C90.3223 29.1484 90.2033 28.945 90.1157 28.7009C90.0281 28.4567 89.9842 28.1625 89.9842 27.8183C89.9842 27.1986 90.1407 26.7009 90.4506 26.3253C90.7636 25.9498 91.208 25.762 91.7839 25.762C92.0906 25.762 92.3379 25.7745 92.5163 25.8027C92.6978 25.8308 92.8418 25.859 92.9482 25.8903V29.38H92.9513Z" fill="#FF915A"/>
<path d="M105.923 29.987C105.886 30.0027 105.82 30.0152 105.733 30.0277C105.645 30.0402 105.545 30.0496 105.438 30.0621C105.329 30.0747 105.216 30.084 105.091 30.0903C104.969 30.0966 104.847 30.1028 104.734 30.1028C104.186 30.1028 103.798 29.9463 103.567 29.6334C103.335 29.3204 103.219 28.8008 103.219 28.0747V24.9543H102.146V28.3032C102.146 28.7101 102.19 29.0762 102.274 29.4111C102.359 29.7429 102.496 30.034 102.69 30.2781C102.881 30.5222 103.138 30.7131 103.454 30.8446C103.77 30.9792 104.158 31.0449 104.621 31.0449C105.153 31.0449 105.62 31.0105 106.024 30.9416C106.427 30.8728 106.753 30.807 107 30.7476V24.9512H105.927V29.987H105.923Z" fill="#FF915A"/>
<path d="M112.954 25.5864C112.766 25.3454 112.513 25.1576 112.197 25.0231C111.881 24.8885 111.483 24.8228 111.007 24.8228C110.475 24.8228 110.006 24.8572 109.599 24.926C109.192 24.9949 108.863 25.0606 108.616 25.1201V30.9165H109.69V25.8806C109.727 25.8744 109.793 25.8618 109.881 25.8462C109.968 25.8306 110.068 25.818 110.181 25.8055C110.294 25.793 110.41 25.7836 110.535 25.7773C110.657 25.7711 110.776 25.7648 110.892 25.7648C111.176 25.7648 111.414 25.8024 111.608 25.8744C111.799 25.9464 111.956 26.0622 112.072 26.2249C112.187 26.3845 112.269 26.5974 112.319 26.8571C112.369 27.1169 112.394 27.4299 112.394 27.7992V30.9196H113.467V27.5676C113.467 27.1638 113.43 26.7914 113.352 26.4534C113.276 26.1185 113.142 25.8274 112.954 25.5864Z" fill="#FF915A"/>
<path d="M115.511 29.5298C115.273 29.5298 115.082 29.6049 114.944 29.7583C114.806 29.9116 114.738 30.09 114.738 30.2966C114.738 30.5032 114.806 30.6816 114.944 30.8349C115.082 30.9883 115.273 31.0634 115.511 31.0634C115.748 31.0634 115.939 30.9883 116.077 30.8349C116.215 30.6816 116.284 30.5032 116.284 30.2966C116.284 30.09 116.215 29.9116 116.077 29.7583C115.939 29.6049 115.752 29.5298 115.511 29.5298Z" fill="#FF915A"/>
<path d="M121.53 30.0339C121.298 30.0871 121.041 30.1152 120.757 30.1152C120.403 30.1152 120.102 30.062 119.855 29.9619C119.608 29.8586 119.408 29.7115 119.248 29.5206C119.092 29.3296 118.976 29.1012 118.901 28.832C118.829 28.5628 118.791 28.2686 118.791 27.9494C118.791 27.2296 118.951 26.685 119.27 26.3094C119.589 25.9338 120.049 25.746 120.65 25.746C120.888 25.746 121.113 25.7679 121.326 25.8149C121.539 25.8618 121.724 25.9213 121.886 25.9995L122.127 25.0919C121.88 24.9917 121.624 24.9198 121.354 24.8728C121.085 24.8259 120.816 24.804 120.547 24.804C120.109 24.804 119.708 24.8822 119.351 25.0387C118.995 25.1952 118.691 25.4143 118.444 25.6928C118.196 25.9714 118.005 26.3031 117.871 26.685C117.736 27.0668 117.667 27.4893 117.667 27.9463C117.667 28.4064 117.73 28.8226 117.852 29.2013C117.974 29.58 118.162 29.9055 118.412 30.181C118.663 30.4564 118.969 30.6692 119.336 30.8226C119.702 30.9759 120.128 31.051 120.613 31.051C120.766 31.051 120.926 31.0416 121.091 31.0229C121.257 31.0041 121.414 30.9822 121.558 30.954C121.705 30.9258 121.836 30.8977 121.949 30.8632C122.065 30.8288 122.152 30.7913 122.215 30.7537L122.065 29.8586C121.94 29.9212 121.758 29.9806 121.53 30.0339Z" fill="#FF915A"/>
<path d="M127.883 26.4534C127.805 26.1154 127.673 25.8274 127.485 25.5864C127.298 25.3454 127.044 25.1576 126.728 25.0231C126.412 24.8885 126.014 24.8228 125.539 24.8228C125.007 24.8228 124.537 24.8572 124.13 24.926C123.723 24.9949 123.395 25.0606 123.147 25.1201V30.9165H124.221V25.8806C124.259 25.8744 124.324 25.8618 124.412 25.8462C124.5 25.8306 124.6 25.818 124.712 25.8055C124.825 25.793 124.941 25.7836 125.066 25.7773C125.188 25.7711 125.307 25.7648 125.423 25.7648C125.708 25.7648 125.946 25.8024 126.14 25.8744C126.33 25.9464 126.487 26.0622 126.603 26.2249C126.719 26.3845 126.8 26.5974 126.85 26.8571C126.9 27.1169 126.925 27.4299 126.925 27.7992V30.9196H127.999V27.5676C127.999 27.1607 127.958 26.7914 127.883 26.4534Z" fill="#FF915A"/>
<path d="M99.5233 23.4581V23.5583V23.7492V25.2108C99.3918 25.1263 99.1946 25.0387 98.9286 24.9479C98.6626 24.8571 98.3558 24.8102 98.0116 24.8102C97.5797 24.8102 97.1978 24.8853 96.8629 25.0387C96.528 25.192 96.2464 25.4048 96.0148 25.6803C95.7831 25.9557 95.6079 26.2843 95.4889 26.6662C95.37 27.048 95.3105 27.4705 95.3105 27.9275C95.3105 28.4095 95.3825 28.8445 95.5234 29.2295C95.6642 29.6144 95.8676 29.9431 96.1306 30.2091C96.3935 30.4782 96.7096 30.6848 97.0789 30.8288C97.4482 30.9728 97.8645 31.0479 98.3277 31.0479C98.8284 31.0479 99.2697 31.0134 99.6547 30.9446C100.04 30.8757 100.356 30.8069 100.603 30.738V23.4644V23.1702L99.5233 23.4581ZM99.5233 29.9869C99.4168 30.0182 99.2635 30.0463 99.0663 30.0745C98.8691 30.1027 98.625 30.1152 98.3339 30.1152C97.7549 30.1152 97.2948 29.9274 96.9474 29.5487C96.6 29.17 96.4279 28.6317 96.4279 27.9369C96.4279 27.6301 96.4592 27.3453 96.5187 27.0762C96.5813 26.8101 96.6814 26.5785 96.8191 26.3813C96.9568 26.1873 97.1384 26.0339 97.3574 25.9213C97.5765 25.8117 97.8394 25.7554 98.1493 25.7554C98.4404 25.7554 98.7126 25.8055 98.9568 25.9056C99.204 26.0058 99.3918 26.109 99.5233 26.2155V29.9869Z" fill="#FF915A"/>
<path d="M75.2645 29.8366C75.1863 29.8679 75.0517 29.918 74.8545 29.9931C74.6573 30.0651 74.3976 30.1027 74.0752 30.1027C73.8905 30.1027 73.7278 30.0808 73.5901 30.0338C73.4524 29.9869 73.3366 29.9086 73.2427 29.7991C73.1488 29.6895 73.0799 29.5362 73.0361 29.339C72.9892 29.145 72.9673 28.8977 72.9673 28.6004V25.8461H75.2426V24.951H72.9673V23.2109V23.1702L71.8937 23.4581V23.7523V24.951H71.1426V25.8461H71.8937V28.6098C71.8937 29.0072 71.925 29.3578 71.9908 29.6582C72.0565 29.9618 72.1692 30.2153 72.3319 30.4219C72.4947 30.6285 72.7075 30.7818 72.9735 30.8851C73.2395 30.9884 73.5744 31.0416 73.9844 31.0416C74.3318 31.0416 74.6386 31.0009 74.9077 30.9196C75.1769 30.8382 75.3647 30.7725 75.4742 30.7192L75.2645 29.8366Z" fill="#FF915A"/>
<path d="M41.7039 4.0625V20.3312H45.7225V5.5961H56.7801V20.3312H60.8019V4.0625H41.7039Z" fill="#2855F0"/>
<path d="M55.0932 7.37427H47.1248V8.90787H55.0932V7.37427Z" fill="#2855F0"/>
<path d="M47.1248 10.1094V18.1717H55.0932V10.1094H47.1248ZM52.1481 16.6413H50.0668V11.643H52.1481V16.6413Z" fill="#2855F0"/>
<path d="M113.812 4.0625H110.902V5.55541H108.902V7.08902H110.902V13.865L108.949 13.9902V15.5238L110.902 15.3986V18.8007H109.283V20.3312H113.812V15.214L115.274 15.1201V13.5834L113.812 13.6772V7.08902H115.28V5.55541H113.812V4.0625Z" fill="#2855F0"/>
<path d="M128 20.3312L123.722 15.9964L127.377 12.1155V9.0827H123.421V7.08902H127.747V5.55541H123.421V4.0625H120.511V5.55541H116.182V7.08902H120.511V9.0827H116.182V10.6132H124.191V11.5897L121.834 14.0841L119.756 11.9809H116.06L120.025 16.0027L115.935 20.3312H119.64L121.913 17.9181L124.295 20.3312H128Z" fill="#2855F0"/>
<path d="M78.0784 5.5961H83.4022V4.0625H64.3386V20.3312H68.3604V5.5961H75.1333V6.89497H69.9034V8.42857H75.1333V10.1093H69.9034V20.3312H83.4367V10.1093H78.0753V8.42857H83.4367V6.89497H78.0753V5.5961H78.0784ZM80.4946 11.6429V18.8007H72.8485V17.4267L79.1144 17.023V15.4894L72.8485 15.8931V14.7821L79.1144 14.3783V12.8447L72.8485 13.2485V11.6429H80.4946Z" fill="#2855F0"/>
<path d="M104.448 4.0625H101.509V13.8932L96.3074 14.2375V15.7711L101.509 15.4299V20.3312H104.448V15.2328L106.072 15.1263V13.5927L104.448 13.6992V4.0625Z" fill="#2855F0"/>
<path d="M86.9741 20.3312H88.8489L89.4216 9.75244H87.5469L86.9741 20.3312Z" fill="#2855F0"/>
<path d="M93.3618 9.75244L93.9377 20.3312H95.8125L95.2397 9.75244H93.3618Z" fill="#2855F0"/>
<path d="M95.6702 7.18604H92.8628V5.5961H95.6702V4.0625H87.1165V5.5961H89.9239V7.18604H87.1165V8.71651H89.9239V20.3312H92.8628V8.71651H95.6702V7.18604Z" fill="#2855F0"/>
<path d="M100.574 9.66196L96.5522 9.40845V10.942L100.574 11.1987V9.66196Z" fill="#2855F0"/>
<path d="M100.574 5.3333L96.5522 5.07666V6.61339L100.574 6.86691V5.3333Z" fill="#2855F0"/>
<path d="M26.1182 0.526123H9.25795L0 5.04242L2.6885 30.8038L15.9244 35.8929V15.931H11.1984L10.8448 12.5665H24.5282L24.1746 15.931H19.4486V35.8929L32.6532 30.8257L35.3636 5.03616L26.1182 0.526123ZM29.3638 28.3L22.9853 30.7475V19.4677H27.3607L27.7332 15.931L28.0868 12.5665L28.4593 9.02979H6.91686L7.28931 12.5665L7.64297 15.931L8.01542 19.4677H12.3877V30.7381L5.98105 28.2781L3.75889 7.14252L10.0717 4.0628H25.3013L31.5891 7.13L29.3638 28.3Z" fill="#2855F0"/>
</svg>
